<?xml version="1.0" encoding="UTF-8"?>
<svg xmlns="http://www.w3.org/2000/svg" viewBox="0 0 1200 630" width="1200" height="630">
  <defs>
    <radialGradient id="bg" cx="50%" cy="35%" r="80%">
      <stop offset="0%" stop-color="#060810"/>
      <stop offset="60%" stop-color="#000000"/>
      <stop offset="100%" stop-color="#000000"/>
    </radialGradient>
    <linearGradient id="accent" x1="0%" y1="0%" x2="100%" y2="0%">
      <stop offset="0%" stop-color="#2a7fd9"/>
      <stop offset="100%" stop-color="#f5f5f5"/>
    </linearGradient>
    <filter id="grain" x="0" y="0" width="100%" height="100%">
      <feTurbulence baseFrequency="0.9" numOctaves="2" seed="3" />
      <feColorMatrix values="0 0 0 0 1   0 0 0 0 1   0 0 0 0 1   0 0 0 0.05 0"/>
      <feComposite in2="SourceGraphic" operator="in"/>
    </filter>
  </defs>

  <!-- Background -->
  <rect width="1200" height="630" fill="url(#bg)"/>

  <!-- Grid lines (subtle) -->
  <g stroke="#1a1c20" stroke-width="0.5" opacity="0.5">
    <line x1="60" y1="60" x2="1140" y2="60"/>
    <line x1="60" y1="570" x2="1140" y2="570"/>
    <line x1="60" y1="60" x2="60" y2="570"/>
    <line x1="1140" y1="60" x2="1140" y2="570"/>
  </g>

  <!-- Stars -->
  <g fill="#f5f5f5">
    <circle cx="120" cy="100" r="1.2"/>
    <circle cx="280" cy="80" r="1"/>
    <circle cx="450" cy="130" r="0.8"/>
    <circle cx="640" cy="90" r="1.2"/>
    <circle cx="820" cy="110" r="1"/>
    <circle cx="980" cy="80" r="0.9"/>
    <circle cx="1080" cy="130" r="1.1"/>
    <circle cx="180" cy="510" r="0.9"/>
    <circle cx="360" cy="540" r="1.1"/>
    <circle cx="540" cy="500" r="1"/>
    <circle cx="720" cy="540" r="0.8"/>
    <circle cx="900" cy="510" r="1.2"/>
    <circle cx="1060" cy="490" r="1"/>
  </g>
  <g fill="#b0bec5" opacity="0.6">
    <circle cx="200" cy="180" r="0.6"/>
    <circle cx="380" cy="220" r="0.5"/>
    <circle cx="560" cy="180" r="0.6"/>
    <circle cx="740" cy="200" r="0.5"/>
    <circle cx="920" cy="180" r="0.6"/>
    <circle cx="240" cy="430" r="0.5"/>
    <circle cx="420" cy="450" r="0.6"/>
    <circle cx="600" cy="430" r="0.5"/>
    <circle cx="780" cy="450" r="0.6"/>
    <circle cx="960" cy="430" r="0.5"/>
  </g>

  <!-- HAL mark (top-left) -->
  <g transform="translate(72, 80)">
    <circle r="14" fill="#f5f5f5"/>
    <circle r="6" fill="#ff0000"/>
  </g>

  <!-- Brand mark -->
  <text x="98" y="86" font-family="Orbitron, monospace, sans-serif" font-size="13" font-weight="700" fill="#f5f5f5" letter-spacing="2">POLLMAP <tspan fill="#6c7480">//</tspan> 燦憙</text>

  <!-- Status pill (top-right) -->
  <g transform="translate(940, 70)">
    <rect width="180" height="28" rx="14" fill="none" stroke="#3d4047"/>
    <circle cx="14" cy="14" r="3" fill="#06d6a0"/>
    <text x="26" y="19" font-family="JetBrains Mono, monospace" font-size="10" fill="#b0bec5" letter-spacing="1">2026.05.07 · LIFTOFF</text>
  </g>

  <!-- Section overline -->
  <text x="72" y="220" font-family="JetBrains Mono, monospace" font-size="13" fill="#6c7480" letter-spacing="3">NODE · 2026.05 → 2028.06 · BUILD LOG</text>

  <!-- Main title -->
  <text x="72" y="290" font-family="Orbitron, sans-serif" font-size="42" font-weight="300" fill="#b0bec5">An odyssey of</text>
  <text x="72" y="345" font-family="Orbitron, sans-serif" font-size="56" font-weight="600" fill="#f5f5f5">Financial Data,</text>
  <text x="72" y="400" font-family="Orbitron, sans-serif" font-size="56" font-weight="600" fill="#f5f5f5">Research Automation,</text>
  <text x="72" y="455" font-family="Orbitron, serif" font-size="48" font-weight="400" font-style="italic" fill="#2a7fd9">and the human in between.</text>

  <!-- Position chip -->
  <g transform="translate(72, 480)">
    <rect width="380" height="32" fill="#0c0d10" stroke="#3d4047"/>
    <text x="14" y="21" font-family="JetBrains Mono, monospace" font-size="11" fill="#b0bec5" letter-spacing="2">MAIN POSITION · </text>
    <text x="172" y="21" font-family="JetBrains Mono, monospace" font-size="11" font-weight="500" fill="#f5f5f5" letter-spacing="2">금융 데이터/AI · WM/PB</text>
  </g>

  <!-- Bottom stats grid -->
  <g transform="translate(72, 540)">
    <text x="0" y="0" font-family="JetBrains Mono, monospace" font-size="9" fill="#6c7480" letter-spacing="2">FIELD VISITS</text>
    <text x="0" y="20" font-family="Orbitron, sans-serif" font-size="22" font-weight="600" fill="#f5f5f5">254<tspan font-size="11" fill="#b0bec5"> 곳</tspan></text>

    <text x="220" y="0" font-family="JetBrains Mono, monospace" font-size="9" fill="#6c7480" letter-spacing="2">EQUITY BOOK</text>
    <text x="220" y="20" font-family="Orbitron, sans-serif" font-size="22" font-weight="600" fill="#f5f5f5">240K<tspan font-size="11" fill="#b0bec5"> 자</tspan></text>

    <text x="440" y="0" font-family="JetBrains Mono, monospace" font-size="9" fill="#6c7480" letter-spacing="2">MCP PAYLOAD</text>
    <text x="440" y="20" font-family="Orbitron, sans-serif" font-size="22" font-weight="600" fill="#f5f5f5">398<tspan font-size="11" fill="#b0bec5"> tools</tspan></text>

    <text x="660" y="0" font-family="JetBrains Mono, monospace" font-size="9" fill="#6c7480" letter-spacing="2">CUFA REPORTS</text>
    <text x="660" y="20" font-family="Orbitron, sans-serif" font-size="22" font-weight="600" fill="#f5f5f5">9</text>

    <text x="880" y="0" font-family="JetBrains Mono, monospace" font-size="9" fill="#6c7480" letter-spacing="2">KDA 4기</text>
    <text x="880" y="20" font-family="Orbitron, sans-serif" font-size="22" font-weight="600" fill="#f5f5f5">568h</text>
  </g>

  <!-- Station disk (right side) -->
  <g transform="translate(1000, 315)" opacity="0.18">
    <circle r="160" fill="none" stroke="#d8d9dd" stroke-width="1"/>
    <circle r="40" fill="none" stroke="#6c7480" stroke-width="1"/>
    <line x1="-160" y1="0" x2="-40" y2="0" stroke="#d8d9dd" stroke-width="0.5"/>
    <line x1="40" y1="0" x2="160" y2="0" stroke="#d8d9dd" stroke-width="0.5"/>
    <line x1="0" y1="-160" x2="0" y2="-40" stroke="#d8d9dd" stroke-width="0.5"/>
    <line x1="0" y1="40" x2="0" y2="160" stroke="#d8d9dd" stroke-width="0.5"/>
  </g>

  <!-- Bottom border accent -->
  <rect x="0" y="626" width="1200" height="4" fill="url(#accent)" opacity="0.6"/>

  <!-- Grain overlay -->
  <rect width="1200" height="630" filter="url(#grain)" opacity="0.4"/>
</svg>
